<?xml version="1.0" encoding="utf-8"?>
<!-- Generator: Adobe Illustrator 16.0.0, SVG Export Plug-In . SVG Version: 6.00 Build 0)  -->
<!DOCTYPE svg PUBLIC "-//W3C//DTD SVG 1.1//EN" "http://www.w3.org/Graphics/SVG/1.1/DTD/svg11.dtd">
<svg version="1.1" id="Layer_1" xmlns="http://www.w3.org/2000/svg" xmlns:xlink="http://www.w3.org/1999/xlink" x="0px" y="0px"
	 width="25px" height="22px" viewBox="0 0 25 22" enable-background="new 0 0 25 22" xml:space="preserve">
<g>
	<path fill="#fff" d="M12.686,2.619c-4.523,0-8.191,3.668-8.191,8.19c0,3.354,2.017,6.235,4.902,7.501
		c-0.022-0.57-0.004-1.258,0.143-1.88c0.157-0.666,1.055-4.464,1.055-4.464s-0.263-0.522-0.263-1.295c0-1.214,0.704-2.12,1.579-2.12
		c0.746,0,1.106,0.56,1.106,1.229c0,0.749-0.478,1.87-0.724,2.906c-0.205,0.869,0.436,1.579,1.293,1.579
		c1.551,0,2.597-1.995,2.597-4.355c0-1.795-1.208-3.139-3.409-3.139c-2.483,0-4.031,1.852-4.031,3.921
		c0,0.716,0.21,1.218,0.54,1.607c0.151,0.179,0.173,0.252,0.118,0.457c-0.04,0.151-0.13,0.513-0.168,0.655
		c-0.055,0.208-0.223,0.282-0.409,0.208c-1.145-0.47-1.678-1.722-1.678-3.131c0-2.326,1.962-5.115,5.854-5.115
		c3.127,0,5.185,2.262,5.185,4.69c0,3.213-1.786,5.613-4.42,5.613c-0.884,0-1.716-0.478-2.001-1.021c0,0-0.475,1.888-0.576,2.253
		c-0.174,0.632-0.514,1.262-0.824,1.754C11.101,18.882,11.879,19,12.686,19c4.521,0,8.189-3.667,8.189-8.19
		C20.875,6.287,17.207,2.619,12.686,2.619z"/>
</g>
</svg>
