<?xml version="1.0" encoding="utf-8"?>
<!-- Generator: Adobe Illustrator 16.0.0, SVG Export Plug-In . SVG Version: 6.00 Build 0)  -->
<!DOCTYPE svg PUBLIC "-//W3C//DTD SVG 1.1//EN" "http://www.w3.org/Graphics/SVG/1.1/DTD/svg11.dtd">
<svg version="1.1" id="Layer_1" xmlns="http://www.w3.org/2000/svg" xmlns:xlink="http://www.w3.org/1999/xlink" x="0px" y="0px"
	 width="25px" height="22px" viewBox="0 0 25 22" enable-background="new 0 0 25 22" xml:space="preserve">
<g>
	<path fill="#fff" d="M9.088,15.723l-1.139-0.887c-0.346-0.285-0.82-0.665-0.82-1.36c0-0.7,0.475-1.145,0.884-1.555
		c1.327-1.046,2.651-2.156,2.651-4.501c0-2.143-1.144-3.381-1.92-4.054c0.26,0,1.789,0,1.789,0L12.402,2H5.898
		C4.193,2,2.045,2.254,0.246,3.742C0.161,3.816,0.08,3.892,0,3.968v7.817c0.866,0.721,2.033,1.182,3.467,1.182
		c0.315,0,0.662-0.033,1.011-0.064c-0.158,0.38-0.315,0.698-0.315,1.237c0,0.981,0.504,1.583,0.946,2.153
		C3.901,16.375,1.804,16.503,0,17.278v1.851c0.652-0.887,1.684-1.272,2.141-1.438c1.326-0.445,3.031-0.509,3.316-0.509
		c0.314,0,0.473,0,0.725,0.032c2.401,1.712,3.783,2.565,3.783,4.186c0,0.171-0.016,0.337-0.045,0.501h1.793
		c0.239-0.565,0.366-1.153,0.366-1.739C12.079,17.975,10.477,16.896,9.088,15.723z M5.058,11.865c-2.716,0-3.905-3.306-3.905-5.427
		c0-0.827,0.156-1.681,0.693-2.348c0.507-0.633,1.391-1.046,2.212-1.046c2.62,0,3.872,3.551,3.872,5.832
		c0,0.458-0.161,1.352-0.754,2.031C6.656,11.499,5.847,11.865,5.058,11.865z"/>
</g>
</svg>
