<?xml version="1.0" encoding="utf-8"?>
<!-- Generator: Adobe Illustrator 16.0.0, SVG Export Plug-In . SVG Version: 6.00 Build 0)  -->
<!DOCTYPE svg PUBLIC "-//W3C//DTD SVG 1.1//EN" "http://www.w3.org/Graphics/SVG/1.1/DTD/svg11.dtd">
<svg version="1.1" id="Layer_1" xmlns="http://www.w3.org/2000/svg" xmlns:xlink="http://www.w3.org/1999/xlink" x="0px" y="0px"
	 width="25px" height="22px" viewBox="0 0 25 22" enable-background="new 0 0 25 22" xml:space="preserve">
<circle fill="#fff" cx="12.5" cy="11" r="2"/>
<g>
	<path fill="#fff" d="M12.5,19c-2.137,0-4.146-0.833-5.656-2.345l2.122-2.121C9.91,15.479,11.166,16,12.5,16
		c2.025,0,3.836-1.208,4.616-3.077L17.501,12H23v3h-3.57C18.014,17.459,15.393,19,12.5,19z"/>
	<path fill="#fff" d="M7.5,10H2V7h3.572C6.987,4.541,9.608,3,12.5,3c2.137,0,4.146,0.833,5.657,2.345l-2.122,2.121
		C15.091,6.521,13.836,6,12.5,6c-2.023,0-3.836,1.208-4.615,3.077L7.5,10z"/>
</g>
</svg>
