<?xml version="1.0" encoding="utf-8"?>
<!-- Generator: Adobe Illustrator 16.0.0, SVG Export Plug-In . SVG Version: 6.00 Build 0)  -->
<!DOCTYPE svg PUBLIC "-//W3C//DTD SVG 1.1//EN" "http://www.w3.org/Graphics/SVG/1.1/DTD/svg11.dtd">
<svg version="1.1" id="Layer_1" xmlns="http://www.w3.org/2000/svg" xmlns:xlink="http://www.w3.org/1999/xlink" x="0px" y="0px"
	 width="25px" height="22px" viewBox="0 0 25 22" enable-background="new 0 0 25 22" xml:space="preserve">
<path fill="#fff" d="M21.517,5.7c-0.649,0.288-1.348,0.483-2.081,0.57c0.748-0.448,1.323-1.159,1.594-2.005
	c-0.701,0.416-1.477,0.717-2.302,0.879C18.066,4.44,17.124,4,16.082,4c-2.001,0-3.624,1.623-3.624,3.625
	c0,0.284,0.032,0.56,0.094,0.826C9.54,8.299,6.87,6.856,5.082,4.664c-0.312,0.535-0.49,1.158-0.49,1.822
	c0,1.257,0.64,2.367,1.612,3.017C5.609,9.483,5.051,9.32,4.562,9.049c-0.001,0.015-0.001,0.03-0.001,0.045
	c0,1.756,1.249,3.221,2.907,3.554c-0.304,0.083-0.624,0.127-0.954,0.127c-0.234,0-0.461-0.023-0.683-0.065
	c0.461,1.44,1.8,2.488,3.386,2.517c-1.24,0.972-2.803,1.551-4.501,1.551c-0.292,0-0.581-0.017-0.864-0.051
	c1.604,1.028,3.508,1.628,5.555,1.628c6.667,0,10.312-5.522,10.312-10.312c0-0.157-0.004-0.313-0.012-0.469
	C20.417,7.064,21.031,6.426,21.517,5.7z"/>
</svg>
