<?xml version="1.0" encoding="utf-8"?>
<!-- Generator: Adobe Illustrator 16.0.0, SVG Export Plug-In . SVG Version: 6.00 Build 0)  -->
<!DOCTYPE svg PUBLIC "-//W3C//DTD SVG 1.1//EN" "http://www.w3.org/Graphics/SVG/1.1/DTD/svg11.dtd">
<svg version="1.1" id="Layer_1" xmlns="http://www.w3.org/2000/svg" xmlns:xlink="http://www.w3.org/1999/xlink" x="0px" y="0px"
	 width="25px" height="22px" viewBox="0 0 25 22" enable-background="new 0 0 25 22" xml:space="preserve">
<path fill-rule="evenodd" clip-rule="evenodd" fill="#fff" d="M12.463,16.95h1.233c0,0,0.372-0.041,0.563-0.246
	c0.174-0.188,0.169-0.541,0.169-0.541s-0.024-1.654,0.743-1.898c0.758-0.24,1.729,1.6,2.76,2.307
	c0.779,0.535,1.372,0.418,1.372,0.418l2.755-0.039c0,0,1.441-0.088,0.758-1.223c-0.058-0.092-0.398-0.838-2.05-2.369
	c-1.728-1.604-1.497-1.344,0.587-4.117c1.266-1.689,1.771-2.721,1.615-3.162c-0.152-0.421-1.084-0.311-1.084-0.311l-3.102,0.02
	c0,0-0.23-0.031-0.402,0.07c-0.165,0.1-0.273,0.333-0.273,0.333s-0.49,1.308-1.145,2.42c-1.382,2.345-1.934,2.47-2.16,2.323
	c-0.524-0.34-0.393-1.363-0.393-2.092c0-2.272,0.344-3.221-0.672-3.465c-0.338-0.082-0.586-0.136-1.449-0.145
	c-1.105-0.012-2.043,0.004-2.572,0.263c-0.354,0.173-0.626,0.558-0.46,0.58c0.204,0.027,0.669,0.126,0.915,0.46
	C10.49,6.97,10.479,7.94,10.479,7.94s0.184,2.676-0.427,3.008c-0.418,0.229-0.991-0.236-2.223-2.365
	c-0.631-1.09-1.106-2.295-1.106-2.295S6.63,6.063,6.466,5.942C6.268,5.797,5.99,5.75,5.99,5.75L3.041,5.769
	c0,0-0.441,0.014-0.604,0.206c-0.145,0.17-0.012,0.524-0.012,0.524s2.308,5.4,4.921,8.12C9.742,17.114,12.463,16.95,12.463,16.95
	L12.463,16.95z"/>
</svg>
