<?xml version="1.0" encoding="UTF-8" standalone="no"?>
<svg width="501px" height="481px" viewBox="0 0 501 481" version="1.1" xmlns="http://www.w3.org/2000/svg" xmlns:xlink="http://www.w3.org/1999/xlink" xmlns:sketch="http://www.bohemiancoding.com/sketch/ns">
    <title>Slice 1</title>
    <description>Created with Sketch (http://www.bohemiancoding.com/sketch)</description>
    <defs></defs>
    <g id="Page-1" stroke="none" stroke-width="1" fill="none" fill-rule="evenodd" sketch:type="MSPage">
        <g sketch:type="MSLayerGroup" id="Group-3" fill="#000000">
            <g sketch:type="MSShapeGroup">
                <path d="M336.8363,238.600566 C333.99192,183.287621 292.954423,150.025376 243.403722,150.025376 L241.529621,150.025376 C184.349601,150.025376 152.629443,195.024499 152.629443,246.141427 C152.629443,303.369511 191.001995,339.524414 241.310311,339.524414 C297.407075,339.524414 334.284333,298.415419 336.96257,249.772212 C336.96257,249.772212 334.284333,298.415419 336.96257,249.772212 L336.8363,238.600566 L336.8363,238.600566 L336.8363,238.600566 L336.8363,238.600566 Z M342.332334,143.887621 C342.332334,131.286271 350.872121,121.710575 362.734782,121.710575 L365.738661,121.690625 C384.293591,121.690625 388.101604,139.252718 388.101604,144.818592 L388.194645,342.337275 C386.878787,355.271115 401.526016,361.947503 409.647121,353.648566 C441.353987,321.05795 479.267982,186.093832 389.942477,107.898963 C306.697831,34.9906759 194.99609,47.0001949 135.59639,87.9761949 C87.317863,121.291448 52.3281782,185.518837 56.069726,254.40708 C57.2220906,275.624073 62.0484523,297.283189 71.2921274,318.617478 C114.077456,417.433343 236.518727,446.905208 309.283027,417.493191 C346.140348,402.624262 363.166756,452.464431 324.887245,468.743115 C267.062587,493.387233 106.11585,490.900212 30.9258509,360.584296 C-19.8742506,272.587638 -17.1760768,117.76725 117.559828,37.5441949 C220.622096,-23.8267081 356.507716,-6.84979668 438.449795,78.7795367 C524.100202,168.305646 519.102599,335.926879 435.552249,401.088161 C397.704711,430.693022 341.488324,401.886136 341.847195,358.742305 L341.455096,344.638102 C315.098057,370.805022 280.028442,386.072938 241.815388,386.072938 C166.31304,386.072938 99.8821374,319.614946 99.8821374,244.073343 C99.8821374,167.773663 166.31304,100.530997 241.815388,100.530997 C280.028442,100.530997 315.955359,117.428111 342.332334,143.887621 Z M342.332334,143.887621" id="Fill-1"></path>
            </g>
        </g>
    </g>
</svg>