<?xml version="1.0" encoding="UTF-8" standalone="no"?>
<svg width="301px" height="500px" viewBox="0 0 301 500" version="1.1" xmlns="http://www.w3.org/2000/svg" xmlns:xlink="http://www.w3.org/1999/xlink" xmlns:sketch="http://www.bohemiancoding.com/sketch/ns">
    <title>odnoklassniki</title>
    <description>Created with Sketch (http://www.bohemiancoding.com/sketch)</description>
    <defs></defs>
    <g id="Page-1" stroke="none" stroke-width="1" fill="none" fill-rule="evenodd" sketch:type="MSPage">
        <path d="M296.489626,268.532046 C289.339866,254.179856 269.533762,242.240551 243.214184,262.958905 C207.641379,290.968333 150.500836,290.968333 150.500836,290.968333 C150.500836,290.968333 93.358601,290.968333 57.7841034,262.958905 C31.4645257,242.240551 11.661806,254.179856 4.51204615,268.532046 C-7.95476597,293.553689 6.12983797,305.648554 37.9136937,326.035495 C65.0607821,343.448178 102.363068,349.952994 126.450567,352.38617 L106.344934,372.475516 C78.0200392,400.775776 50.6817265,428.093634 31.7132865,447.0484 C20.3718212,458.377296 20.3718212,476.750399 31.7132865,488.086059 L35.1350178,491.503328 C40.7922124,497.15594 48.2008867,499.988164 55.61633,500 L55.7229418,500 C63.1366928,499.988164 70.5470594,497.154249 76.204254,491.503328 L150.835902,416.932135 C179.159104,445.230704 206.497417,472.548562 225.467549,491.501637 C236.807322,502.832224 255.19532,502.832224 266.535093,491.501637 L269.956824,488.082677 C281.301674,476.748708 281.29829,458.377296 269.956824,447.046709 L175.155239,352.323607 C199.263045,349.841395 236.165959,343.304453 263.086286,326.035495 C294.870142,305.648554 308.953053,293.553689 296.489626,268.532046 C296.489626,268.532046 308.953053,293.553689 296.489626,268.532046 L296.489626,268.532046 L296.489626,268.532046 Z M150.500836,64.2872602 C184.912757,64.2872602 212.809513,92.1631091 212.809513,126.545464 C212.809513,160.929511 184.912757,188.801978 150.500836,188.801978 C116.088915,188.801978 88.1921591,160.929511 88.1921591,126.545464 C88.1921591,92.1631091 116.088915,64.2872602 150.500836,64.2872602 C150.500836,64.2872602 116.088915,64.2872602 150.500836,64.2872602 L150.500836,64.2872602 L150.500836,64.2872602 Z M150.500836,253.090929 C220.444949,253.090929 277.148891,196.43461 277.148891,126.545464 C277.148891,56.6580094 220.444949,0 150.500836,0 C80.5533387,0 23.851089,56.6580094 23.851089,126.545464 C23.851089,196.43461 80.5533387,253.090929 150.500836,253.090929 L150.500836,253.090929 Z M150.500836,253.090929" id="Fill-51" fill="#030200" sketch:type="MSShapeGroup"></path>
    </g>
</svg>