<svg xmlns="http://www.w3.org/2000/svg" width="25" height="22"><path fill="#fff" d="M12.686 2.619c-4.523 0-8.191 3.668-8.191 8.19 0 3.354 2.017 6.235 4.902 7.501-.022-.57-.004-1.258.143-1.88l1.055-4.464s-.263-.522-.263-1.295c0-1.214.704-2.12 1.579-2.12.746 0 1.106.56 1.106 1.229 0 .749-.478 1.87-.724 2.906-.205.869.436 1.579 1.293 1.579 1.551 0 2.597-1.995 2.597-4.355 0-1.795-1.208-3.139-3.409-3.139-2.483 0-4.031 1.852-4.031 3.921 0 .716.21 1.218.54 1.607.151.179.173.252.118.457l-.168.655c-.055.208-.223.282-.409.208-1.145-.47-1.678-1.722-1.678-3.131 0-2.326 1.962-5.115 5.854-5.115 3.127 0 5.185 2.262 5.185 4.69 0 3.213-1.786 5.613-4.42 5.613-.884 0-1.716-.478-2.001-1.021 0 0-.475 1.888-.576 2.253-.174.632-.514 1.262-.824 1.754.737.22 1.515.338 2.322.338 4.521 0 8.189-3.667 8.189-8.19s-3.668-8.191-8.189-8.191z"/></svg>