<?xml version="1.0" encoding="UTF-8" standalone="no"?>
<svg width="501px" height="502px" viewBox="0 0 501 502" version="1.1" xmlns="http://www.w3.org/2000/svg" xmlns:xlink="http://www.w3.org/1999/xlink" xmlns:sketch="http://www.bohemiancoding.com/sketch/ns">
    <title>pinterest</title>
    <description>Created with Sketch (http://www.bohemiancoding.com/sketch)</description>
    <defs></defs>
    <g id="Page-1" stroke="none" stroke-width="1" fill="none" fill-rule="evenodd" sketch:type="MSPage">
        <path d="M250.525525,0.619 C112.460812,0.619 0.495,112.801895 0.495,251.103708 C0.495,353.68316 62.0639866,441.796279 150.1287,480.515893 C149.457149,463.082891 150.0066,442.040952 154.493779,423.017572 C159.286209,402.648485 186.697686,286.489643 186.697686,286.489643 C186.697686,286.489643 178.669603,270.524683 178.669603,246.883086 C178.669603,209.753851 200.159225,182.044554 226.868626,182.044554 C249.640299,182.044554 260.62931,199.171714 260.62931,219.632552 C260.62931,242.540128 246.038346,276.825031 238.529188,308.510276 C232.271557,335.087958 251.838101,356.802749 277.998053,356.802749 C325.342375,356.802749 357.271557,295.787244 357.271557,223.6085 C357.271557,168.709837 320.39732,127.604654 253.211728,127.604654 C177.418077,127.604654 130.16533,184.246617 130.16533,247.525355 C130.16533,269.423652 136.575586,284.776927 146.648846,296.674186 C151.258126,302.14876 151.929676,304.381408 150.2508,310.651171 C149.029799,315.269388 146.282546,326.340873 145.122595,330.683831 C143.443718,337.045348 138.315513,339.308579 132.637857,337.045348 C97.6866972,322.670767 81.4168559,284.379332 81.4168559,241.286175 C81.4168559,170.147295 141.306966,84.8479238 260.110385,84.8479238 C355.562155,84.8479238 418.382668,154.029415 418.382668,228.287885 C418.382668,326.554962 363.864963,399.957075 283.462033,399.957075 C256.477906,399.957075 231.081081,385.337821 222.381447,368.730593 C222.381447,368.730593 207.882057,426.473588 204.799029,437.636826 C199.487674,456.966048 189.109164,476.234103 179.646404,491.281536 C202.143352,498.010063 225.891825,501.619 250.525525,501.619 C388.529188,501.619 500.495,389.466689 500.495,251.134292 C500.495,112.801895 388.529188,0.619 250.525525,0.619 L250.525525,0.619 L250.525525,0.619 L250.525525,0.619 Z M250.525525,0.619" id="Shape" fill="#000000" sketch:type="MSShapeGroup"></path>
    </g>
</svg>