<svg xmlns="http://www.w3.org/2000/svg" width="25" height="22"><path fill="#fff" d="M9.088 15.723l-1.139-.887c-.346-.285-.82-.665-.82-1.36 0-.7.475-1.145.884-1.555 1.327-1.046 2.651-2.156 2.651-4.501 0-2.143-1.144-3.381-1.92-4.054h1.789l1.869-1.366h-6.504c-1.705 0-3.853.254-5.652 1.742l-.246.226v7.817c.866.721 2.033 1.182 3.467 1.182.315 0 .662-.033 1.011-.064-.158.38-.315.698-.315 1.237 0 .981.504 1.583.946 2.153-1.208.082-3.305.21-5.109.985v1.851c.652-.887 1.684-1.272 2.141-1.438 1.326-.445 3.031-.509 3.316-.509.314 0 .473 0 .725.032 2.401 1.712 3.783 2.565 3.783 4.186 0 .171-.016.337-.045.501h1.793c.239-.565.366-1.153.366-1.739 0-2.187-1.602-3.266-2.991-4.439zm-4.03-3.858c-2.716 0-3.905-3.306-3.905-5.427 0-.827.156-1.681.693-2.348.507-.633 1.391-1.046 2.212-1.046 2.62 0 3.872 3.551 3.872 5.832 0 .458-.161 1.352-.754 2.031-.52.592-1.329.958-2.118.958z"/></svg>