<svg xmlns="http://www.w3.org/2000/svg" width="25" height="22"><path fill="#fff" d="M21.517 5.7c-.649.288-1.348.483-2.081.57.748-.448 1.323-1.159 1.594-2.005-.701.416-1.477.717-2.302.879-.662-.704-1.604-1.144-2.646-1.144-2.001 0-3.624 1.623-3.624 3.625 0 .284.032.56.094.826-3.012-.152-5.682-1.595-7.47-3.787-.312.535-.49 1.158-.49 1.822 0 1.257.64 2.367 1.612 3.017-.595-.02-1.153-.183-1.642-.454l-.001.045c0 1.756 1.249 3.221 2.907 3.554-.304.083-.624.127-.954.127-.234 0-.461-.023-.683-.065.461 1.44 1.8 2.488 3.386 2.517-1.24.972-2.803 1.551-4.501 1.551-.292 0-.581-.017-.864-.051 1.604 1.028 3.508 1.628 5.555 1.628 6.667 0 10.312-5.522 10.312-10.312l-.012-.469c.71-.51 1.324-1.148 1.81-1.874z"/></svg>