<svg xmlns="http://www.w3.org/2000/svg" width="25" height="22"><path fill-rule="evenodd" clip-rule="evenodd" fill="#fff" d="M12.463 16.95h1.233s.372-.041.563-.246c.174-.188.169-.541.169-.541s-.024-1.654.743-1.898c.758-.24 1.729 1.6 2.76 2.307.779.535 1.372.418 1.372.418l2.755-.039s1.441-.088.758-1.223c-.058-.092-.398-.838-2.05-2.369-1.728-1.604-1.497-1.344.587-4.117 1.266-1.689 1.771-2.721 1.615-3.162-.152-.421-1.084-.311-1.084-.311l-3.102.02s-.23-.031-.402.07c-.165.1-.273.333-.273.333s-.49 1.308-1.145 2.42c-1.382 2.345-1.934 2.47-2.16 2.323-.524-.34-.393-1.363-.393-2.092 0-2.272.344-3.221-.672-3.465-.338-.082-.586-.136-1.449-.145-1.105-.012-2.043.004-2.572.263-.354.173-.626.558-.46.58.204.027.669.126.915.46.319.434.308 1.404.308 1.404s.184 2.676-.427 3.008c-.418.229-.991-.236-2.223-2.365-.631-1.09-1.106-2.295-1.106-2.295s-.093-.225-.257-.346c-.198-.145-.476-.192-.476-.192l-2.949.019s-.441.014-.604.206c-.145.17-.012.524-.012.524s2.308 5.4 4.921 8.12c2.396 2.495 5.117 2.331 5.117 2.331z"/></svg>