<?xml version="1.0" encoding="UTF-8" standalone="no"?>
<svg width="16" height="16" viewBox="0 0 16 16" version="1.1" xmlns="http://www.w3.org/2000/svg">
    <path d="M15.96 3.42c-.04.153-.144.31-.237.414l-.118.058v.118l-.59.532-.237.295c-.05.036-.398.21-.413.237V6.49h-.06v.473h-.058v.294h-.058v.296h-.06v.235h-.06v.237h-.058c-.1.355-.197.71-.295 1.064h-.06v.116h-.06c-.02.1-.04.197-.058.296h-.06c-.04.118-.08.237-.118.355h-.06c-.038.118-.078.236-.117.353l-.118.06-.06.235-.117.06v.116l-.118.06v.12h-.06c-.02.057-.038.117-.058.175l-.118.06v.117c-.06.04-.118.08-.177.118v.118l-.237.177v.118l-.59.53-.532.592h-.117c-.06.078-.118.156-.177.236l-.177.06-.06.117h-.118l-.06.118-.176.06v.058h-.118l-.06.118-.353.12-.06.117c-.078.02-.156.04-.235.058v.06c-.118.038-.236.078-.354.118v.058H8.76v.06h-.12v.06h-.176v.058h-.118v.06H8.17v.058H7.99v.06l-.413.058v.06h-.237c-.667.22-1.455.293-2.36.293h-.886v-.058h-.53v-.06H3.27v-.06h-.295v-.06H2.68v-.057h-.177v-.06h-.236v-.058H2.09v-.06h-.177v-.058h-.177v-.06H1.56v-.058h-.12v-.06l-.294-.06v-.057c-.118-.04-.236-.08-.355-.118v-.06H.674v-.058H.555v-.06H.437v-.058H.32l-.06-.12H.142v-.058c-.13-.08-.083.026-.177-.118H1.56v-.06c.294-.04.59-.077.884-.117v-.06h.177v-.058h.237v-.06h.118v-.06h.177v-.057h.118v-.06h.177v-.058l.236-.06v-.058l.236-.06c.02-.038.04-.078.058-.117l.237-.06c.02-.04.04-.077.058-.117h.118l.06-.118h.118c.036-.025.047-.078.118-.118V12.1c-1.02-.08-1.84-.54-2.303-1.183-.08-.058-.157-.118-.236-.176v-.117l-.118-.06v-.117c-.115-.202-.268-.355-.296-.65.453.004.987.008 1.354-.06v-.06c-.254-.008-.47-.08-.65-.175v-.058H2.32v-.06c-.08-.02-.157-.04-.236-.058l-.06-.118h-.117l-.118-.178h-.12c-.077-.098-.156-.196-.235-.294l-.118-.06v-.117l-.177-.12c-.35-.502-.6-1.15-.59-2.006h.06c.204.234.948.377 1.357.415v-.06c-.257-.118-.676-.54-.827-.768V5.9l-.118-.06c-.04-.117-.08-.236-.118-.354h-.06v-.118H.787c-.04-.196-.08-.394-.118-.59-.06-.19-.206-.697-.118-1.005h.06V3.36h.058v-.177h.06v-.177h.057V2.83h.06c.04-.118.078-.236.117-.355h.118v.06c.12.097.237.196.355.295v.118l.118.058c.08.098.157.197.236.295l.176.06.354.413h.118l.177.236h.118l.06.117h.117c.04.06.08.118.118.177h.118l.06.118.235.06.06.117.356.12.06.117.53.176v.06h.118v.058l.236.06v.06c.118.02.236.04.355.058v.06h.177v.058h.177v.06h.176v.058h.236v.06l.472.057v.06l1.417.18v-.237c-.1-.112-.058-.442-.057-.65 0-.573.15-.99.354-1.358v-.117l.118-.06.06-.235.176-.118v-.118c.14-.118.276-.236.414-.355l.06-.117h.117l.12-.177.235-.06.06-.117h.117v-.058H9.7v-.058h.177v-.06h.177v-.058h.177v-.06h.296v-.058h1.063v.058h.294v.06h.177v.058h.178v.06h.177v.058h.118v.06h.118l.06.117c.08.018.158.038.236.058.04.06.08.118.118.177h.118l.06.117c.142.133.193.163.472.178.136-.12.283-.05.472-.118v-.06h.177v-.058h.177v-.06l.236-.058v-.06h.177l.59-.352v.176h-.058l-.06.295h-.058v.117h-.06v.118l-.117.06v.118l-.177.118v.117l-.118.06-.354.412h-.117l-.177.236h.06c.13-.112.402-.053.59-.117l1.063-.353z"/>
</svg>